<svg width="50" height="48" viewBox="0 0 50 48" fill="none" xmlns="http://www.w3.org/2000/svg">
<path d="M24.6094 -1.85799e-08C11.0127 -1.85799e-08 0 11.0188 0 24.6094C0 35.4846 7.05058 44.707 16.8266 47.9575C18.0571 48.1892 18.5083 47.4284 18.5083 46.7742C18.5083 46.1897 18.4878 44.6414 18.4775 42.5906C11.632 44.0753 10.1883 39.2888 10.1883 39.2888C9.06855 36.4485 7.45048 35.6897 7.45048 35.6897C5.22128 34.1639 7.62275 34.1947 7.62275 34.1947C10.0939 34.367 11.3921 36.7295 11.3921 36.7295C13.5864 40.4926 17.1527 39.4057 18.5596 38.7761C18.781 37.1847 19.4147 36.0999 20.1181 35.4846C14.6528 34.8694 8.90859 32.753 8.90859 23.3235C8.90859 20.637 9.8622 18.4427 11.4413 16.72C11.1644 16.0986 10.3339 13.5967 11.6566 10.2067C11.6566 10.2067 13.7177 9.54638 18.4242 12.7292C20.393 12.1816 22.4847 11.9109 24.5765 11.8986C26.6683 11.9109 28.7601 12.1816 30.7289 12.7292C35.4047 9.54638 37.4657 10.2067 37.4657 10.2067C38.7884 13.5967 37.9579 16.0986 37.7118 16.72C39.2806 18.4427 40.2342 20.637 40.2342 23.3235C40.2342 32.7776 34.4818 34.8591 29.0062 35.4641C29.8676 36.2024 30.6674 37.7118 30.6674 40.0169C30.6674 43.3104 30.6366 45.9559 30.6366 46.7557C30.6366 47.4017 31.0673 48.1708 32.3285 47.9247C42.1743 44.6967 49.2187 35.4682 49.2187 24.6094C49.2187 11.0188 38.1999 -1.85799e-08 24.6094 -1.85799e-08Z" fill="#484848"/>
</svg>
