<svg width="48" height="47" viewBox="0 0 48 47" fill="none" xmlns="http://www.w3.org/2000/svg">
<path d="M24 -1.81198e-08C10.74 -1.81198e-08 0 10.746 0 24C0 34.606 6.876 43.6 16.41 46.77C17.61 46.996 18.05 46.254 18.05 45.616C18.05 45.046 18.03 43.536 18.02 41.536C11.344 42.984 9.936 38.316 9.936 38.316C8.844 35.546 7.266 34.806 7.266 34.806C5.092 33.318 7.434 33.348 7.434 33.348C9.844 33.516 11.11 35.82 11.11 35.82C13.25 39.49 16.728 38.43 18.1 37.816C18.316 36.264 18.934 35.206 19.62 34.606C14.29 34.006 8.688 31.942 8.688 22.746C8.688 20.126 9.618 17.986 11.158 16.306C10.888 15.7 10.078 13.26 11.368 9.954C11.368 9.954 13.378 9.31 17.968 12.414C19.888 11.88 21.928 11.616 23.968 11.604C26.008 11.616 28.048 11.88 29.968 12.414C34.528 9.31 36.538 9.954 36.538 9.954C37.828 13.26 37.018 15.7 36.778 16.306C38.308 17.986 39.238 20.126 39.238 22.746C39.238 31.966 33.628 33.996 28.288 34.586C29.128 35.306 29.908 36.778 29.908 39.026C29.908 42.238 29.878 44.818 29.878 45.598C29.878 46.228 30.298 46.978 31.528 46.738C41.13 43.59 48 34.59 48 24C48 10.746 37.254 -1.81198e-08 24 -1.81198e-08Z" fill="white"/>
<path d="M11.1549 40.8535C12.3955 41.8844 14.4008 42.6783 17.5234 42.1419C17.5287 43.0026 17.5355 43.7497 17.5408 44.3442C17.5461 44.9267 17.55 45.3628 17.55 45.616C17.55 45.8313 17.4747 46.0275 17.3432 46.1475C17.2294 46.2512 16.9994 46.3651 16.5343 46.2844C7.21599 43.1704 0.5 34.3719 0.5 24C0.5 11.0221 11.0162 0.5 24 0.5C36.9779 0.5 47.5 11.0221 47.5 24C47.5 34.3567 40.7891 43.1611 31.403 46.2528C30.9181 46.3411 30.6882 46.2248 30.5789 46.125C30.4513 46.0085 30.378 45.8145 30.378 45.598C30.378 45.3423 30.3812 44.8918 30.3856 44.286C30.3879 43.9728 30.3904 43.6181 30.393 43.2273C30.4005 42.0827 30.408 40.6335 30.408 39.026C30.408 37.2452 29.9409 35.8827 29.2925 34.9623C31.6994 34.613 34.1559 33.9026 36.0865 32.2856C38.2966 30.4345 39.738 27.4652 39.738 22.746C39.738 20.1132 38.8395 17.9303 37.3492 16.1971C37.6711 15.2312 38.2054 12.8518 37.0038 9.77225L36.9173 9.55048L36.6906 9.47784L36.538 9.954C36.6906 9.47784 36.6901 9.47769 36.6896 9.47753L36.6885 9.4772L36.6863 9.47651L36.6814 9.47499L36.6692 9.4714C36.66 9.46879 36.6488 9.46576 36.6356 9.46246C36.6091 9.45584 36.5745 9.44811 36.5317 9.44037C36.4459 9.42487 36.3275 9.40935 36.1755 9.4024C35.8712 9.38848 35.435 9.40903 34.8595 9.53084C33.7411 9.76754 32.1011 10.3856 29.8783 11.8714C27.9779 11.3654 25.9726 11.1158 23.9709 11.104V11.104L23.9651 11.104C21.9631 11.1158 19.9575 11.3655 18.0569 11.8716C15.8193 10.3854 14.1718 9.76739 13.0499 9.53076C12.4727 9.40902 12.0357 9.38849 11.731 9.4024C11.5788 9.40934 11.4603 9.42485 11.3745 9.44035C11.3316 9.4481 11.297 9.45582 11.2705 9.46244C11.2572 9.46575 11.246 9.46878 11.2369 9.47139L11.2246 9.47498L11.2197 9.47651L11.2175 9.4772L11.2164 9.47753C11.2159 9.47769 11.2154 9.47784 11.368 9.954L11.2154 9.47784L10.9887 9.55048L10.9022 9.77225C9.70467 12.8413 10.2296 15.2194 10.5801 16.2034C9.08399 17.9359 8.188 20.1169 8.188 22.746C8.188 27.4534 9.62744 30.4244 11.8332 32.2819C13.7621 33.9064 16.217 34.6264 18.6223 34.981C18.1799 35.6115 17.8284 36.4403 17.6491 37.4644C16.9815 37.7337 15.9849 38.0201 14.9375 37.9265C13.7872 37.8236 12.5301 37.2605 11.5441 35.5719L11.5415 35.5672L11.5272 35.5423C11.5151 35.5215 11.4979 35.4927 11.4757 35.4569C11.4312 35.3853 11.3664 35.2856 11.2812 35.1665C11.1115 34.9291 10.8585 34.6115 10.5232 34.2875C9.85603 33.6427 8.8321 32.9442 7.46877 32.8492L7.4546 32.8482L7.4404 32.848L7.434 33.348C7.4404 32.848 7.44024 32.848 7.44007 32.848L7.43968 32.848L7.43875 32.848L7.43622 32.848L7.42865 32.848L7.40391 32.848C7.38339 32.8482 7.3549 32.8487 7.32018 32.8499C7.2512 32.8523 7.15537 32.8577 7.0473 32.8696C6.85099 32.8912 6.53872 32.9415 6.2875 33.0844C6.15658 33.1589 5.99589 33.2846 5.90584 33.4901C5.80894 33.7111 5.82954 33.9414 5.91367 34.143C6.06108 34.4962 6.43587 34.8437 6.98359 35.2186L7.01703 35.2415L7.04991 35.2569L7.05053 35.2572L7.05069 35.2573L7.05192 35.2579L7.05486 35.2594C7.061 35.2626 7.07272 35.2688 7.08954 35.2783C7.12318 35.2973 7.17719 35.3297 7.24769 35.3778C7.38862 35.4741 7.59571 35.6335 7.83786 35.8757C8.319 36.3571 8.94531 37.1723 9.46476 38.484L9.46491 38.4845C9.46898 38.4969 9.47461 38.5137 9.48195 38.5345C9.49661 38.576 9.51809 38.6336 9.54739 38.7046C9.60593 38.8463 9.69602 39.0422 9.82582 39.2702C10.085 39.7254 10.5059 40.3142 11.1549 40.8535Z" stroke="black" stroke-opacity="0.8"/>
</svg>
