<svg width="48" height="48" viewBox="0 0 48 48" fill="none" xmlns="http://www.w3.org/2000/svg">
<path d="M40.894 40.904H33.786V29.766C33.786 27.11 33.732 23.692 30.082 23.692C26.376 23.692 25.81 26.582 25.81 29.57V40.904H18.702V18H25.53V21.122H25.622C26.576 19.322 28.896 17.422 32.362 17.422C39.564 17.422 40.896 22.162 40.896 28.332V40.904H40.894ZM10.674 14.866C8.386 14.866 6.548 13.014 6.548 10.736C6.548 8.46 8.388 6.61 10.674 6.61C12.954 6.61 14.802 8.46 14.802 10.736C14.802 13.014 12.952 14.866 10.674 14.866ZM14.238 40.904H7.11V18H14.238V40.904ZM44.45 0H3.542C1.584 0 0 1.548 0 3.458V44.542C0 46.454 1.584 48 3.542 48H44.444C46.4 48 48 46.454 48 44.542V3.458C48 1.548 46.4 0 44.444 0H44.45Z" fill="white" fill-opacity="0.68"/>
<path d="M33.286 40.904V41.404H33.786H40.894H40.896H41.396V40.904V28.332C41.396 25.236 41.0674 22.382 39.7527 20.2966C38.4047 18.1583 36.0862 16.922 32.362 16.922C29.4762 16.922 27.3208 18.1718 26.03 19.6589V18V17.5H25.53H18.702H18.202V18V40.904V41.404H18.702H25.81H26.31V40.904V29.57C26.31 28.0851 26.4554 26.7283 26.994 25.7521C27.2569 25.2757 27.6114 24.8942 28.093 24.6278C28.5776 24.3597 29.2204 24.192 30.082 24.192C30.9146 24.192 31.4966 24.3859 31.9143 24.6775C32.3332 24.9699 32.6294 25.3906 32.8379 25.9171C33.2661 26.9987 33.286 28.4163 33.286 29.766V40.904ZM14.238 41.404H14.738V40.904V18V17.5H14.238H7.11H6.61V18V40.904V41.404H7.11H14.238ZM6.048 10.736C6.048 13.2887 8.10844 15.366 10.674 15.366C13.2285 15.366 15.302 13.2898 15.302 10.736C15.302 8.18386 13.2301 6.11 10.674 6.11C8.11107 6.11 6.048 8.18465 6.048 10.736ZM3.542 0.5H44.444C46.1379 0.5 47.5 1.83795 47.5 3.458V44.542C47.5 46.1639 46.1381 47.5 44.444 47.5H3.542C1.84872 47.5 0.5 46.1666 0.5 44.542V3.458C0.5 1.83524 1.84891 0.5 3.542 0.5Z" stroke="#120909" stroke-opacity="0.67"/>
</svg>
