<svg width="48" height="35" viewBox="0 0 48 35" fill="none" xmlns="http://www.w3.org/2000/svg">
<path d="M44.1305 34.1241H3.86947C1.73662 34.1241 0 32.389 0 30.2546V3.86947C0 1.73507 1.73662 0 3.86947 0H44.1305C46.2634 0 48 1.73507 48 3.86947V30.2546C48 32.389 46.2634 34.1241 44.1305 34.1241ZM3.86947 1.54779C2.58945 1.54779 1.54779 2.58945 1.54779 3.86947V30.2546C1.54779 31.5346 2.58945 32.5763 3.86947 32.5763H44.1305C45.4106 32.5763 46.4522 31.5346 46.4522 30.2546V3.86947C46.4522 2.58945 45.4106 1.54779 44.1305 1.54779H3.86947Z" fill="#484848"/>
<path d="M22.8863 19.6204C21.857 19.6204 20.8277 19.2783 20.0445 18.5958L0.265332 1.35805C-0.0566084 1.07635 -0.0906597 0.588801 0.191038 0.266861C0.472735 -0.0581741 0.961836 -0.0891296 1.28378 0.19102L21.0614 17.4287C22.052 18.2908 23.7236 18.2893 24.7111 17.4287L44.4841 0.192568C44.8045 -0.0906775 45.292 -0.0581743 45.5768 0.268409C45.8585 0.590349 45.8245 1.0779 45.5025 1.3596L25.728 18.5942C24.9448 19.2783 23.9155 19.6204 22.8863 19.6204Z" transform="translate(1.11377 1.33057)" fill="#484848"/>
</svg>
